<svg xmlns="http://www.w3.org/2000/svg" width="1922.875" height="74.053" viewBox="0 0 1922.875 74.053">
  <g id="fot.footer" transform="translate(0.5 1.053)">
    <text id="RECIPES" transform="matrix(1, 0, 0, -1, 109.17, 33.729)" fill="#fff" font-size="27" font-family="BarricadaPro, Barricada Pro"><tspan x="0" y="0">RECIPES</tspan></text>
    <g id="Group_19" data-name="Group 19" transform="translate(0 16)">
      <g id="Group_20" data-name="Group 20">
        <rect id="Rectangle_2" data-name="Rectangle 2" width="1920" height="57" fill="#9c5407"/>
      </g>
    </g>
    <path id="Path_296" data-name="Path 296" d="M17.807,46.875C-1.118,23.221,17.807,0,17.807,0H0V46.875Z" transform="translate(234.375 20) rotate(-90)" fill="#9c5407" stroke="#9c5407" stroke-width="1"/>
    <path id="Path_297" data-name="Path 297" d="M17.807,46.875C-1.118,23.221,17.807,0,17.807,0H0V46.875Z" transform="translate(234.375 20) rotate(-90)" fill="#9c5407" stroke="#9c5407" stroke-width="1"/>
    <path id="Path_298" data-name="Path 298" d="M17.807,46.875C-1.118,23.221,17.807,0,17.807,0H0V46.875Z" transform="translate(281.25 20) rotate(-90)" fill="#9c5407" stroke="#9c5407" stroke-width="1"/>
    <path id="Path_299" data-name="Path 299" d="M17.807,46.875C-1.118,23.221,17.807,0,17.807,0H0V46.875Z" transform="translate(328.125 20) rotate(-90)" fill="#9c5407" stroke="#9c5407" stroke-width="1"/>
    <path id="Path_300" data-name="Path 300" d="M17.807,46.875C-1.118,23.221,17.807,0,17.807,0H0V46.875Z" transform="translate(328.125 20) rotate(-90)" fill="#9c5407" stroke="#9c5407" stroke-width="1"/>
    <path id="Path_301" data-name="Path 301" d="M17.807,46.875C-1.118,23.221,17.807,0,17.807,0H0V46.875Z" transform="translate(46.875 20) rotate(-90)" fill="#9c5407" stroke="#9c5407" stroke-width="1"/>
    <path id="Path_302" data-name="Path 302" d="M17.807,46.875C-1.118,23.221,17.807,0,17.807,0H0V46.875Z" transform="translate(46.875 20) rotate(-90)" fill="#9c5407" stroke="#9c5407" stroke-width="1"/>
    <path id="Path_303" data-name="Path 303" d="M17.807,46.875C-1.118,23.221,17.807,0,17.807,0H0V46.875Z" transform="translate(93.75 20) rotate(-90)" fill="#9c5407" stroke="#9c5407" stroke-width="1"/>
    <path id="Path_304" data-name="Path 304" d="M17.807,46.875C-1.118,23.221,17.807,0,17.807,0H0V46.875Z" transform="translate(140.625 20) rotate(-90)" fill="#9c5407" stroke="#9c5407" stroke-width="1"/>
    <path id="Path_305" data-name="Path 305" d="M17.807,46.875C-1.118,23.221,17.807,0,17.807,0H0V46.875Z" transform="translate(140.625 20) rotate(-90)" fill="#9c5407" stroke="#9c5407" stroke-width="1"/>
    <path id="Path_306" data-name="Path 306" d="M17.807,46.875C-1.118,23.221,17.807,0,17.807,0H0V46.875Z" transform="translate(187.5 20) rotate(-90)" fill="#9c5407" stroke="#9c5407" stroke-width="1"/>
    <path id="Path_307" data-name="Path 307" d="M17.807,46.875C-1.118,23.221,17.807,0,17.807,0H0V46.875Z" transform="translate(0 20) rotate(-90)" fill="#9c5407" stroke="#9c5407" stroke-width="1"/>
    <path id="Path_308" data-name="Path 308" d="M17.807,46.875C-1.118,23.221,17.807,0,17.807,0H0V46.875Z" transform="translate(609.375 20) rotate(-90)" fill="#9c5407" stroke="#9c5407" stroke-width="1"/>
    <path id="Path_309" data-name="Path 309" d="M17.807,46.875C-1.118,23.221,17.807,0,17.807,0H0V46.875Z" transform="translate(656.25 20) rotate(-90)" fill="#9c5407" stroke="#9c5407" stroke-width="1"/>
    <path id="Path_310" data-name="Path 310" d="M17.807,46.875C-1.118,23.221,17.807,0,17.807,0H0V46.875Z" transform="translate(703.125 20) rotate(-90)" fill="#9c5407" stroke="#9c5407" stroke-width="1"/>
    <path id="Path_311" data-name="Path 311" d="M17.807,46.875C-1.118,23.221,17.807,0,17.807,0H0V46.875Z" transform="translate(421.875 20) rotate(-90)" fill="#9c5407" stroke="#9c5407" stroke-width="1"/>
    <path id="Path_312" data-name="Path 312" d="M17.807,46.875C-1.118,23.221,17.807,0,17.807,0H0V46.875Z" transform="translate(468.75 20) rotate(-90)" fill="#9c5407" stroke="#9c5407" stroke-width="1"/>
    <path id="Path_313" data-name="Path 313" d="M17.807,46.875C-1.118,23.221,17.807,0,17.807,0H0V46.875Z" transform="translate(515.625 20) rotate(-90)" fill="#9c5407" stroke="#9c5407" stroke-width="1"/>
    <path id="Path_314" data-name="Path 314" d="M17.807,46.875C-1.118,23.221,17.807,0,17.807,0H0V46.875Z" transform="translate(562.5 20) rotate(-90)" fill="#9c5407" stroke="#9c5407" stroke-width="1"/>
    <path id="Path_315" data-name="Path 315" d="M17.807,46.875C-1.118,23.221,17.807,0,17.807,0H0V46.875Z" transform="translate(375 20) rotate(-90)" fill="#9c5407" stroke="#9c5407" stroke-width="1"/>
    <path id="Path_316" data-name="Path 316" d="M17.807,46.875C-1.118,23.221,17.807,0,17.807,0H0V46.875Z" transform="translate(750 20) rotate(-90)" fill="#9c5407" stroke="#9c5407" stroke-width="1"/>
    <path id="Path_317" data-name="Path 317" d="M17.807,46.875C-1.118,23.221,17.807,0,17.807,0H0V46.875Z" transform="translate(1031.25 17.808) rotate(-90)" fill="#9c5407" stroke="#9c5407" stroke-width="1"/>
    <path id="Path_318" data-name="Path 318" d="M17.807,46.875C-1.118,23.221,17.807,0,17.807,0H0V46.875Z" transform="translate(1031.25 17.808) rotate(-90)" fill="#9c5407" stroke="#9c5407" stroke-width="1"/>
    <path id="Path_319" data-name="Path 319" d="M17.807,46.875C-1.118,23.221,17.807,0,17.807,0H0V46.875Z" transform="translate(1078.125 17.808) rotate(-90)" fill="#9c5407" stroke="#9c5407" stroke-width="1"/>
    <path id="Path_320" data-name="Path 320" d="M17.807,46.875C-1.118,23.221,17.807,0,17.807,0H0V46.875Z" transform="translate(1125 17.808) rotate(-90)" fill="#9c5407" stroke="#9c5407" stroke-width="1"/>
    <path id="Path_321" data-name="Path 321" d="M17.807,46.875C-1.118,23.221,17.807,0,17.807,0H0V46.875Z" transform="translate(1125 17.808) rotate(-90)" fill="#9c5407" stroke="#9c5407" stroke-width="1"/>
    <path id="Path_322" data-name="Path 322" d="M17.807,46.875C-1.118,23.221,17.807,0,17.807,0H0V46.875Z" transform="translate(843.75 17.808) rotate(-90)" fill="#9c5407" stroke="#9c5407" stroke-width="1"/>
    <path id="Path_323" data-name="Path 323" d="M17.807,46.875C-1.118,23.221,17.807,0,17.807,0H0V46.875Z" transform="translate(843.75 17.808) rotate(-90)" fill="#9c5407" stroke="#9c5407" stroke-width="1"/>
    <path id="Path_324" data-name="Path 324" d="M17.807,46.875C-1.118,23.221,17.807,0,17.807,0H0V46.875Z" transform="translate(890.625 17.808) rotate(-90)" fill="#9c5407" stroke="#9c5407" stroke-width="1"/>
    <path id="Path_325" data-name="Path 325" d="M17.807,46.875C-1.118,23.221,17.807,0,17.807,0H0V46.875Z" transform="translate(937.5 17.808) rotate(-90)" fill="#9c5407" stroke="#9c5407" stroke-width="1"/>
    <path id="Path_326" data-name="Path 326" d="M17.807,46.875C-1.118,23.221,17.807,0,17.807,0H0V46.875Z" transform="translate(937.5 17.808) rotate(-90)" fill="#9c5407" stroke="#9c5407" stroke-width="1"/>
    <path id="Path_327" data-name="Path 327" d="M17.807,46.875C-1.118,23.221,17.807,0,17.807,0H0V46.875Z" transform="translate(984.375 17.808) rotate(-90)" fill="#9c5407" stroke="#9c5407" stroke-width="1"/>
    <path id="Path_328" data-name="Path 328" d="M17.807,46.875C-1.118,23.221,17.807,0,17.807,0H0V46.875Z" transform="translate(796.875 17.808) rotate(-90)" fill="#9c5407" stroke="#9c5407" stroke-width="1"/>
    <path id="Path_329" data-name="Path 329" d="M17.807,46.875C-1.118,23.221,17.807,0,17.807,0H0V46.875Z" transform="translate(1406.25 17.808) rotate(-90)" fill="#9c5407" stroke="#9c5407" stroke-width="1"/>
    <path id="Path_330" data-name="Path 330" d="M17.807,46.875C-1.118,23.221,17.807,0,17.807,0H0V46.875Z" transform="translate(1453.125 17.808) rotate(-90)" fill="#9c5407" stroke="#9c5407" stroke-width="1"/>
    <path id="Path_331" data-name="Path 331" d="M17.807,46.875C-1.118,23.221,17.807,0,17.807,0H0V46.875Z" transform="translate(1500 17.808) rotate(-90)" fill="#9c5407" stroke="#9c5407" stroke-width="1"/>
    <path id="Path_332" data-name="Path 332" d="M17.807,46.875C-1.118,23.221,17.807,0,17.807,0H0V46.875Z" transform="translate(1218.75 17.808) rotate(-90)" fill="#9c5407" stroke="#9c5407" stroke-width="1"/>
    <path id="Path_333" data-name="Path 333" d="M17.807,46.875C-1.118,23.221,17.807,0,17.807,0H0V46.875Z" transform="translate(1265.625 17.808) rotate(-90)" fill="#9c5407" stroke="#9c5407" stroke-width="1"/>
    <path id="Path_334" data-name="Path 334" d="M17.807,46.875C-1.118,23.221,17.807,0,17.807,0H0V46.875Z" transform="translate(1312.5 17.808) rotate(-90)" fill="#9c5407" stroke="#9c5407" stroke-width="1"/>
    <path id="Path_335" data-name="Path 335" d="M17.807,46.875C-1.118,23.221,17.807,0,17.807,0H0V46.875Z" transform="translate(1359.375 17.808) rotate(-90)" fill="#9c5407" stroke="#9c5407" stroke-width="1"/>
    <path id="Path_336" data-name="Path 336" d="M17.807,46.875C-1.118,23.221,17.807,0,17.807,0H0V46.875Z" transform="translate(1171.875 17.808) rotate(-90)" fill="#9c5407" stroke="#9c5407" stroke-width="1"/>
    <path id="Path_337" data-name="Path 337" d="M17.807,46.875C-1.118,23.221,17.807,0,17.807,0H0V46.875Z" transform="translate(1546.875 17.808) rotate(-90)" fill="#9c5407" stroke="#9c5407" stroke-width="1"/>
    <path id="Path_338" data-name="Path 338" d="M17.807,46.875C-1.118,23.221,17.807,0,17.807,0H0V46.875Z" transform="translate(1828.125 17.808) rotate(-90)" fill="#9c5407" stroke="#9c5407" stroke-width="1"/>
    <path id="Path_339" data-name="Path 339" d="M17.807,46.875C-1.118,23.221,17.807,0,17.807,0H0V46.875Z" transform="translate(1828.125 17.808) rotate(-90)" fill="#9c5407" stroke="#9c5407" stroke-width="1"/>
    <path id="Path_340" data-name="Path 340" d="M17.807,46.875C-1.118,23.221,17.807,0,17.807,0H0V46.875Z" transform="translate(1875 17.808) rotate(-90)" fill="#9c5407" stroke="#9c5407" stroke-width="1"/>
    <path id="Path_341" data-name="Path 341" d="M17.807,46.875C-1.118,23.221,17.807,0,17.807,0H0V46.875Z" transform="translate(1640.625 17.808) rotate(-90)" fill="#9c5407" stroke="#9c5407" stroke-width="1"/>
    <path id="Path_342" data-name="Path 342" d="M17.807,46.875C-1.118,23.221,17.807,0,17.807,0H0V46.875Z" transform="translate(1640.625 17.808) rotate(-90)" fill="#9c5407" stroke="#9c5407" stroke-width="1"/>
    <path id="Path_343" data-name="Path 343" d="M17.807,46.875C-1.118,23.221,17.807,0,17.807,0H0V46.875Z" transform="translate(1687.5 17.808) rotate(-90)" fill="#9c5407" stroke="#9c5407" stroke-width="1"/>
    <path id="Path_344" data-name="Path 344" d="M17.807,46.875C-1.118,23.221,17.807,0,17.807,0H0V46.875Z" transform="translate(1734.375 17.808) rotate(-90)" fill="#9c5407" stroke="#9c5407" stroke-width="1"/>
    <path id="Path_345" data-name="Path 345" d="M17.807,46.875C-1.118,23.221,17.807,0,17.807,0H0V46.875Z" transform="translate(1734.375 17.808) rotate(-90)" fill="#9c5407" stroke="#9c5407" stroke-width="1"/>
    <path id="Path_346" data-name="Path 346" d="M17.807,46.875C-1.118,23.221,17.807,0,17.807,0H0V46.875Z" transform="translate(1781.25 17.808) rotate(-90)" fill="#9c5407" stroke="#9c5407" stroke-width="1"/>
    <path id="Path_347" data-name="Path 347" d="M17.807,46.875C-1.118,23.221,17.807,0,17.807,0H0V46.875Z" transform="translate(1593.75 17.808) rotate(-90)" fill="#9c5407" stroke="#9c5407" stroke-width="1"/>
  </g>
</svg>
