<svg xmlns="http://www.w3.org/2000/svg" width="19.162" height="19.158" viewBox="0 0 19.162 19.158">
  <path id="Icon_awesome-instagram" data-name="Icon awesome-instagram" d="M9.578,6.9a4.912,4.912,0,1,0,4.912,4.912A4.9,4.9,0,0,0,9.578,6.9Zm0,8.105a3.193,3.193,0,1,1,3.193-3.193A3.2,3.2,0,0,1,9.578,15.01ZM15.836,6.7a1.146,1.146,0,1,1-1.146-1.146A1.143,1.143,0,0,1,15.836,6.7ZM19.09,7.867a5.67,5.67,0,0,0-1.548-4.014,5.707,5.707,0,0,0-4.014-1.548c-1.582-.09-6.323-.09-7.9,0A5.7,5.7,0,0,0,1.61,3.848,5.688,5.688,0,0,0,.062,7.862c-.09,1.582-.09,6.323,0,7.9A5.67,5.67,0,0,0,1.61,19.781a5.714,5.714,0,0,0,4.014,1.548c1.582.09,6.323.09,7.9,0a5.67,5.67,0,0,0,4.014-1.548,5.707,5.707,0,0,0,1.548-4.014c.09-1.582.09-6.318,0-7.9Zm-2.043,9.6a3.233,3.233,0,0,1-1.821,1.821c-1.261.5-4.254.385-5.647.385s-4.39.111-5.647-.385A3.233,3.233,0,0,1,2.11,17.464c-.5-1.261-.385-4.254-.385-5.647s-.111-4.39.385-5.647A3.233,3.233,0,0,1,3.931,4.348c1.261-.5,4.254-.385,5.647-.385s4.39-.111,5.647.385A3.233,3.233,0,0,1,17.046,6.17c.5,1.261.385,4.254.385,5.647S17.546,16.207,17.046,17.464Z" transform="translate(0.005 -2.238)" fill="#fcf3ce"/>
</svg>
