<?xml version="1.0" encoding="UTF-8"?><svg xmlns="http://www.w3.org/2000/svg" viewBox="0 0 87.68 87.68"><defs><style>.cls-1{fill:none;}.cls-1,.cls-2{stroke:#9c5407;stroke-miterlimit:10;stroke-width:.25px;}.cls-3{fill:#9c5407;}.cls-3,.cls-4{stroke-width:0px;}.cls-4{fill:#fff;opacity:.1;}.cls-2,.cls-5{fill:#fcf3ce;}.cls-5{font-family:BarricadaPro, 'Barricada Pro';font-size:27px;}</style></defs><g id="Layer_2"><circle class="cls-4" cx="43.84" cy="43.84" r="43.84"/></g><g id="Layer_3"><circle class="cls-3" cx="43.84" cy="43.84" r="34.57"/></g><g id="Layer_4"><text class="cls-5" transform="translate(23.78 65.77)"><tspan x="0" y="0">TR</tspan></text></g><g id="Layer_8"><path class="cls-2" d="m31.56,36.42s-5.94-2.24-6.23-6.92,2.63-7.21,3.6-7.69,4.29-3.02,10.03-2.24,6.33,1.46,8.77,1.95,8.67.39,8.67.39l-24.84,14.51"/></g><g id="Layer_6"><path class="cls-2" d="m31.56,36.42s-2.43-3.9-.88-5.06,1.85,1.07,4.87.49,24.93-15.29,25.62-10.23-9.54,18.21-9.54,18.21l-6.04,1.66-14.02-5.06Z"/></g><g id="Layer_7"><path class="cls-2" d="m51.22,42.12c.79.3,1.59.6-1.19,1.7s-12.99.7-12.99.7l-1.69-4.41,15.86,2Z"/></g><g id="Layer_9"><path class="cls-1" d="m44.55,40.47s1.68-.94,2.83-3.41"/><path class="cls-1" d="m46.44,40.56s1.68-.94,2.83-3.41"/></g><g id="Layer_5"><path class="cls-2" d="m31.27,36.22s4.48-.97,7.3-.58,4.87,3.21,7.6,3.9,5.94-.1,5.94-.1l-.19,3.02s-1.56.29-3.31.58-7.3,1.75-11.01,1.95-6.23-2.34-6.23-2.34l.29-6.23-.39-.19Z"/></g></svg>