<svg xmlns="http://www.w3.org/2000/svg" width="14.842" height="19.292" viewBox="0 0 14.842 19.292">
  <path id="Icon_awesome-pinterest-p" data-name="Icon awesome-pinterest-p" d="M7.885.457C3.919.457,0,3.1,0,7.38c0,2.721,1.531,4.267,2.458,4.267.383,0,.6-1.067.6-1.368,0-.359-.916-1.125-.916-2.621A5.224,5.224,0,0,1,7.572,2.347c2.632,0,4.58,1.5,4.58,4.244,0,2.052-.823,5.9-3.49,5.9A1.716,1.716,0,0,1,6.876,10.8c0-1.461,1.02-2.876,1.02-4.383,0-2.559-3.629-2.095-3.629,1a4.541,4.541,0,0,0,.371,1.96c-.533,2.3-1.623,5.717-1.623,8.082,0,.731.1,1.449.174,2.18.131.147.066.131.267.058,1.948-2.667,1.878-3.189,2.76-6.679a3.135,3.135,0,0,0,2.679,1.391c4.1,0,5.949-4,5.949-7.607C14.842,2.962,11.526.457,7.885.457Z" transform="translate(0 -0.457)" fill="#fcf3ce"/>
</svg>
