<svg xmlns="http://www.w3.org/2000/svg" width="23.809" height="28.218" viewBox="0 0 23.809 28.218">
  <path id="Icon_metro-spoon-fork" data-name="Icon metro-spoon-fork" d="M8.826,1.928C5.9,1.928,3.535,4.692,3.535,8.1A6.056,6.056,0,0,0,7.6,14.108L6.729,28.385a1.642,1.642,0,0,0,1.656,1.76h.882a1.642,1.642,0,0,0,1.656-1.76l-.876-14.278A6.056,6.056,0,0,0,14.116,8.1c0-3.409-2.369-6.173-5.291-6.173Zm17.783,0-1.47,8.818h-1.1L23.3,1.928h-.735l-.735,8.818h-1.1L19.26,1.928h-.735V13.391a.882.882,0,0,0,.882.882h2.3l-.866,14.112a1.642,1.642,0,0,0,1.656,1.76h.882a1.642,1.642,0,0,0,1.656-1.76l-.866-14.112h2.3a.882.882,0,0,0,.882-.882V1.928Z" transform="translate(-3.535 -1.928)"/>
</svg>
