<svg xmlns="http://www.w3.org/2000/svg" width="18.841" height="15.303" viewBox="0 0 18.841 15.303">
  <path id="Icon_awesome-twitter" data-name="Icon awesome-twitter" d="M16.9,7.194c.012.167.012.335.012.5A10.912,10.912,0,0,1,5.93,18.684,10.912,10.912,0,0,1,0,16.95,7.988,7.988,0,0,0,.933,17a7.734,7.734,0,0,0,4.794-1.65A3.868,3.868,0,0,1,2.116,12.67a4.87,4.87,0,0,0,.729.06A4.084,4.084,0,0,0,3.862,12.6a3.862,3.862,0,0,1-3.1-3.79V8.761a3.889,3.889,0,0,0,1.745.49,3.867,3.867,0,0,1-1.2-5.165A10.976,10.976,0,0,0,9.277,8.127a4.359,4.359,0,0,1-.1-.885A3.865,3.865,0,0,1,15.865,4.6a7.6,7.6,0,0,0,2.451-.933,3.851,3.851,0,0,1-1.7,2.128,7.741,7.741,0,0,0,2.224-.6,8.3,8.3,0,0,1-1.937,2Z" transform="translate(0 -3.381)" fill="#fcf3ce"/>
</svg>
